<svg xmlns="http://www.w3.org/2000/svg" width="320" height="100" viewBox="0 0 320 100">
  <defs>
    <style type="text/css">
      @import url('https://fonts.googleapis.com/css2?family=Forum&amp;display=swap');
      .logo-text {
        font-family: 'Forum', serif;
        fill: #e5d2b6;
      }
      .logo-text-top {
        font-size: 36px;
        letter-spacing: 4px;
      }
      .logo-text-bottom {
        font-size: 22px;
        letter-spacing: 9px;
      }
    </style>
  </defs>
  <!-- Icon Path (Spoon/Fork Circle) -->
  <path d="M 36.618 11.112 C 30.415 12.568, 21.335 17.913, 16.912 22.711 C 14.667 25.147, 11.405 30.147, 9.665 33.820 C 6.799 39.869, 6.500 41.402, 6.500 50.052 C 6.500 59.067, 6.710 60.028, 10.235 67.160 C 14.733 76.262, 20.523 81.931, 29.820 86.335 C 35.880 89.206, 37.381 89.498, 46 89.476 C 53.542 89.456, 56.464 89.011, 60.179 87.313 C 63.881 85.622, 64.753 84.771, 64.352 83.239 C 64.074 82.175, 64.556 79.606, 65.423 77.530 C 67.742 71.980, 67.476 71.786, 62.111 75.121 C 53.651 80.381, 44.695 81.354, 35.708 77.992 C 16.123 70.664, 9.813 46.262, 23.399 30.389 C 30.659 21.907, 44.316 17.875, 54.284 21.272 L 58.801 22.811 60.526 18.292 C 62.539 13.021, 62.246 12.655, 54.701 11.032 C 49.034 9.813, 42.019 9.844, 36.618 11.112 M 72.033 12.626 C 67.865 16.133, 64.948 22.107, 64.290 28.484 C 63.599 35.170, 65.281 40.223, 69.317 43.591 C 74.190 47.658, 74.926 49.708, 74.965 59.332 C 74.992 66.239, 74.451 69.755, 72.480 75.465 C 70.536 81.099, 70.182 83.349, 70.932 85.322 C 72.769 90.154, 78.015 91.349, 82.365 87.927 C 85.592 85.389, 85.725 82.411, 82.939 75.079 C 80.310 68.164, 79.228 54.277, 80.987 50.030 C 81.690 48.335, 83.561 46.024, 85.147 44.895 C 89.378 41.883, 91.001 37.966, 90.990 30.800 C 90.973 19.964, 84.593 10, 77.672 10 C 76.287 10, 73.749 11.182, 72.033 12.626" fill="#e5d2b6" />
  
  <!-- Text: WARUNG BANJAR -->
  <text x="100" y="46" class="logo-text logo-text-top">WARUNG</text>
  <text x="102" y="80" class="logo-text logo-text-bottom">BANJAR</text>
</svg>